<svg width="469" height="96" viewBox="0 0 469 96" fill="none" xmlns="http://www.w3.org/2000/svg">
<rect width="469" height="96" fill="black"/>
<path d="M162.416 31.568C162.8 30.544 163.376 29.776 164.144 29.264C164.955 28.7093 165.851 28.432 166.832 28.432C168.069 28.432 169.115 28.816 169.968 29.584C170.864 30.352 171.312 31.3973 171.312 32.72C171.312 33.36 171.184 34.064 170.928 34.832L157.616 71.248C157.232 72.272 156.549 73.0827 155.568 73.68C154.629 74.2347 153.584 74.512 152.432 74.512C151.28 74.512 150.235 74.2347 149.296 73.68C148.357 73.0827 147.696 72.272 147.312 71.248L137.776 44.304L127.984 71.248C127.6 72.272 126.939 73.0827 126 73.68C125.061 74.2347 124.016 74.512 122.864 74.512C121.755 74.512 120.709 74.2347 119.728 73.68C118.789 73.0827 118.128 72.272 117.744 71.248L104.432 34.832C104.176 34.1067 104.048 33.424 104.048 32.784C104.048 31.4613 104.517 30.416 105.456 29.648C106.395 28.8373 107.504 28.432 108.784 28.432C109.808 28.432 110.725 28.7093 111.536 29.264C112.389 29.776 113.008 30.544 113.392 31.568L123.248 59.92L133.488 31.696C133.872 30.672 134.469 29.8827 135.28 29.328C136.133 28.7733 137.029 28.496 137.968 28.496C138.949 28.496 139.845 28.7733 140.656 29.328C141.467 29.8827 142.064 30.6933 142.448 31.76L152.24 60.432L162.416 31.568ZM184.576 74.384C183.168 74.384 181.995 74 181.056 73.232C180.16 72.464 179.712 71.3333 179.712 69.84V46.48C179.712 44.9867 180.181 43.856 181.12 43.088C182.059 42.32 183.211 41.936 184.576 41.936C185.941 41.936 187.072 42.32 187.968 43.088C188.907 43.856 189.376 44.9867 189.376 46.48V69.84C189.376 71.3333 188.907 72.464 187.968 73.232C187.072 74 185.941 74.384 184.576 74.384ZM184.576 36.816C182.869 36.816 181.525 36.3893 180.544 35.536C179.563 34.64 179.072 33.4453 179.072 31.952C179.072 30.4587 179.563 29.2853 180.544 28.432C181.525 27.5787 182.869 27.152 184.576 27.152C186.24 27.152 187.563 27.6 188.544 28.496C189.568 29.3493 190.08 30.5013 190.08 31.952C190.08 33.4453 189.589 34.64 188.608 35.536C187.627 36.3893 186.283 36.816 184.576 36.816ZM216.487 41.808C220.241 41.808 223.036 42.9173 224.871 45.136C226.705 47.312 227.623 50.6187 227.623 55.056V69.84C227.623 71.248 227.175 72.3573 226.279 73.168C225.425 73.9787 224.252 74.384 222.759 74.384C221.265 74.384 220.092 73.9787 219.239 73.168C218.385 72.3573 217.959 71.248 217.959 69.84V55.504C217.959 53.3707 217.553 51.8133 216.743 50.832C215.975 49.8507 214.759 49.36 213.095 49.36C211.089 49.36 209.468 50 208.231 51.28C207.036 52.56 206.439 54.2667 206.439 56.4V69.84C206.439 71.248 206.012 72.3573 205.159 73.168C204.305 73.9787 203.132 74.384 201.639 74.384C200.145 74.384 198.951 73.9787 198.055 73.168C197.201 72.3573 196.775 71.248 196.775 69.84V46.352C196.775 45.0293 197.223 43.9627 198.119 43.152C199.057 42.3413 200.252 41.936 201.703 41.936C203.025 41.936 204.092 42.3413 204.903 43.152C205.756 43.92 206.183 44.9227 206.183 46.16V47.056C207.292 45.3493 208.721 44.048 210.471 43.152C212.263 42.256 214.268 41.808 216.487 41.808ZM260.053 64.656C260.906 64.656 261.589 64.9973 262.101 65.68C262.656 66.3627 262.933 67.2373 262.933 68.304C262.933 69.0293 262.72 69.712 262.293 70.352C261.866 70.9493 261.269 71.4613 260.501 71.888C259.05 72.656 257.365 73.296 255.445 73.808C253.525 74.2773 251.754 74.512 250.133 74.512C246.72 74.512 243.733 73.8507 241.173 72.528C238.656 71.2053 236.714 69.328 235.349 66.896C233.984 64.4213 233.301 61.52 233.301 58.192C233.301 54.992 233.962 52.1547 235.285 49.68C236.608 47.2053 238.442 45.2853 240.789 43.92C243.136 42.512 245.802 41.808 248.789 41.808C251.648 41.808 254.144 42.448 256.277 43.728C258.453 44.9653 260.138 46.7573 261.333 49.104C262.528 51.408 263.125 54.1173 263.125 57.232C263.125 58.1707 262.89 58.896 262.421 59.408C261.994 59.8773 261.376 60.112 260.565 60.112H242.645C242.944 62.6293 243.712 64.464 244.949 65.616C246.186 66.7253 247.957 67.28 250.261 67.28C251.498 67.28 252.608 67.1307 253.589 66.832C254.57 66.5333 255.658 66.128 256.853 65.616C257.45 65.36 258.026 65.1467 258.581 64.976C259.136 64.7627 259.626 64.656 260.053 64.656ZM249.045 48.464C247.21 48.464 245.738 49.0613 244.629 50.256C243.52 51.408 242.858 53.0933 242.645 55.312H254.997C254.869 53.0507 254.293 51.344 253.269 50.192C252.288 49.04 250.88 48.464 249.045 48.464Z" fill="#B0B0B0"/>
<path d="M308.066 67.856C308.962 68.7093 309.41 69.648 309.41 70.672C309.41 71.696 309.005 72.592 308.194 73.36C307.383 74.128 306.445 74.512 305.378 74.512C304.311 74.512 303.373 74.128 302.562 73.36L297.57 68.752C295.522 70.5867 293.261 72.016 290.786 73.04C288.311 74.0213 285.773 74.512 283.17 74.512C280.098 74.512 277.346 73.9787 274.914 72.912C272.482 71.8453 270.583 70.3733 269.218 68.496C267.895 66.576 267.234 64.3787 267.234 61.904C267.234 59.1733 267.959 56.784 269.41 54.736C270.861 52.6453 273.143 50.7253 276.258 48.976C274.722 47.3547 273.591 45.776 272.866 44.24C272.141 42.704 271.778 41.1253 271.778 39.504C271.778 37.328 272.333 35.408 273.442 33.744C274.551 32.0373 276.087 30.736 278.05 29.84C280.055 28.9013 282.338 28.432 284.898 28.432C288.525 28.432 291.405 29.3707 293.538 31.248C295.671 33.0827 296.738 35.5573 296.738 38.672C296.738 40.976 296.098 43.0453 294.818 44.88C293.538 46.7147 291.554 48.4213 288.866 50L296.674 57.296C297.826 54.9067 298.551 52.3253 298.85 49.552C298.978 48.3147 299.426 47.376 300.194 46.736C301.005 46.0533 301.922 45.712 302.946 45.712C304.098 45.712 305.058 46.096 305.826 46.864C306.594 47.632 306.893 48.6773 306.722 50C306.295 54.5653 304.887 58.8107 302.498 62.736L308.066 67.856ZM285.026 34.832C283.661 34.832 282.551 35.2587 281.698 36.112C280.845 36.9227 280.418 38.032 280.418 39.44C280.418 40.336 280.653 41.2107 281.122 42.064C281.634 42.9173 282.509 43.9627 283.746 45.2C285.666 44.176 287.031 43.1733 287.842 42.192C288.653 41.2107 289.058 40.144 289.058 38.992C289.058 37.7547 288.674 36.752 287.906 35.984C287.181 35.216 286.221 34.832 285.026 34.832ZM283.618 67.152C286.647 67.152 289.485 66 292.13 63.696L281.442 53.776C278.242 55.7387 276.642 58.2347 276.642 61.264C276.642 63.0987 277.261 64.5493 278.498 65.616C279.778 66.64 281.485 67.152 283.618 67.152Z" fill="#3FDC26"/>
<path d="M318.652 74C317.159 74 316.007 73.5947 315.196 72.784C314.385 71.9733 313.98 70.8213 313.98 69.328V33.552C313.98 32.0587 314.385 30.9067 315.196 30.096C316.007 29.2853 317.159 28.88 318.652 28.88H331.516C336.423 28.88 340.647 29.776 344.188 31.568C347.729 33.36 350.439 35.9413 352.316 39.312C354.193 42.6827 355.132 46.7147 355.132 51.408C355.132 56.1013 354.193 60.1547 352.316 63.568C350.481 66.9387 347.793 69.52 344.252 71.312C340.711 73.104 336.465 74 331.516 74H318.652ZM330.812 65.936C340.412 65.936 345.212 61.0933 345.212 51.408C345.212 41.7653 340.412 36.944 330.812 36.944H323.964V65.936H330.812ZM366.889 74.384C365.481 74.384 364.307 74 363.369 73.232C362.473 72.464 362.025 71.3333 362.025 69.84V46.48C362.025 44.9867 362.494 43.856 363.433 43.088C364.371 42.32 365.523 41.936 366.889 41.936C368.254 41.936 369.385 42.32 370.281 43.088C371.219 43.856 371.689 44.9867 371.689 46.48V69.84C371.689 71.3333 371.219 72.464 370.281 73.232C369.385 74 368.254 74.384 366.889 74.384ZM366.889 36.816C365.182 36.816 363.838 36.3893 362.857 35.536C361.875 34.64 361.385 33.4453 361.385 31.952C361.385 30.4587 361.875 29.2853 362.857 28.432C363.838 27.5787 365.182 27.152 366.889 27.152C368.553 27.152 369.875 27.6 370.857 28.496C371.881 29.3493 372.393 30.5013 372.393 31.952C372.393 33.4453 371.902 34.64 370.921 35.536C369.939 36.3893 368.595 36.816 366.889 36.816ZM398.799 41.808C402.554 41.808 405.348 42.9173 407.183 45.136C409.018 47.312 409.935 50.6187 409.935 55.056V69.84C409.935 71.248 409.487 72.3573 408.591 73.168C407.738 73.9787 406.564 74.384 405.071 74.384C403.578 74.384 402.404 73.9787 401.551 73.168C400.698 72.3573 400.271 71.248 400.271 69.84V55.504C400.271 53.3707 399.866 51.8133 399.055 50.832C398.287 49.8507 397.071 49.36 395.407 49.36C393.402 49.36 391.78 50 390.543 51.28C389.348 52.56 388.751 54.2667 388.751 56.4V69.84C388.751 71.248 388.324 72.3573 387.471 73.168C386.618 73.9787 385.444 74.384 383.951 74.384C382.458 74.384 381.263 73.9787 380.367 73.168C379.514 72.3573 379.087 71.248 379.087 69.84V46.352C379.087 45.0293 379.535 43.9627 380.431 43.152C381.37 42.3413 382.564 41.936 384.015 41.936C385.338 41.936 386.404 42.3413 387.215 43.152C388.068 43.92 388.495 44.9227 388.495 46.16V47.056C389.604 45.3493 391.034 44.048 392.783 43.152C394.575 42.256 396.58 41.808 398.799 41.808ZM442.366 64.656C443.219 64.656 443.902 64.9973 444.414 65.68C444.968 66.3627 445.246 67.2373 445.246 68.304C445.246 69.0293 445.032 69.712 444.606 70.352C444.179 70.9493 443.582 71.4613 442.814 71.888C441.363 72.656 439.678 73.296 437.758 73.808C435.838 74.2773 434.067 74.512 432.446 74.512C429.032 74.512 426.046 73.8507 423.486 72.528C420.968 71.2053 419.027 69.328 417.661 66.896C416.296 64.4213 415.614 61.52 415.614 58.192C415.614 54.992 416.275 52.1547 417.598 49.68C418.92 47.2053 420.755 45.2853 423.102 43.92C425.448 42.512 428.115 41.808 431.102 41.808C433.96 41.808 436.456 42.448 438.59 43.728C440.766 44.9653 442.451 46.7573 443.646 49.104C444.84 51.408 445.438 54.1173 445.438 57.232C445.438 58.1707 445.203 58.896 444.734 59.408C444.307 59.8773 443.688 60.112 442.878 60.112H424.958C425.256 62.6293 426.024 64.464 427.262 65.616C428.499 66.7253 430.27 67.28 432.574 67.28C433.811 67.28 434.92 67.1307 435.902 66.832C436.883 66.5333 437.971 66.128 439.166 65.616C439.763 65.36 440.339 65.1467 440.894 64.976C441.448 64.7627 441.939 64.656 442.366 64.656ZM431.358 48.464C429.523 48.464 428.051 49.0613 426.942 50.256C425.832 51.408 425.171 53.0933 424.958 55.312H437.31C437.182 53.0507 436.606 51.344 435.582 50.192C434.6 49.04 433.192 48.464 431.358 48.464Z" fill="#9D52E8"/>
<rect x="6" width="90" height="90" rx="19" fill="black"/>
<ellipse cx="67.519" cy="37.2152" rx="14.2405" ry="14.2405" fill="#9D52E8"/>
<circle cx="35.0506" cy="37.2152" r="14.2405" fill="#9D52E8"/>
<ellipse cx="67.519" cy="67.7848" rx="14.2405" ry="14.2405" fill="#9D52E8"/>
<ellipse cx="35.0506" cy="67.7848" rx="14.2405" ry="14.2405" fill="#9D52E8"/>
<rect x="59.1646" y="7.97467" width="8.98018" height="20.0005" rx="4.49009" transform="rotate(46.0365 59.1646 7.97467)" fill="#3FDC26"/>
</svg>
