<svg width="270" height="55" viewBox="0 0 270 55" fill="none" xmlns="http://www.w3.org/2000/svg">
<rect width="270" height="55" fill="black"/>
<path d="M92.7047 17.2882C92.9207 16.7122 93.2447 16.2802 93.6767 15.9922C94.1327 15.6802 94.6367 15.5242 95.1887 15.5242C95.8847 15.5242 96.4727 15.7402 96.9527 16.1722C97.4567 16.6042 97.7087 17.1922 97.7087 17.9362C97.7087 18.2962 97.6367 18.6922 97.4927 19.1242L90.0047 39.6082C89.7887 40.1842 89.4047 40.6402 88.8527 40.9762C88.3247 41.2883 87.7367 41.4443 87.0887 41.4443C86.4407 41.4443 85.8527 41.2883 85.3247 40.9762C84.7967 40.6402 84.4247 40.1842 84.2087 39.6082L78.8447 24.4522L73.3367 39.6082C73.1207 40.1842 72.7487 40.6402 72.2207 40.9762C71.6927 41.2883 71.1047 41.4443 70.4567 41.4443C69.8327 41.4443 69.2447 41.2883 68.6927 40.9762C68.1647 40.6402 67.7927 40.1842 67.5767 39.6082L60.0887 19.1242C59.9447 18.7162 59.8727 18.3322 59.8727 17.9722C59.8727 17.2282 60.1367 16.6402 60.6647 16.2082C61.1927 15.7522 61.8167 15.5242 62.5367 15.5242C63.1127 15.5242 63.6287 15.6802 64.0847 15.9922C64.5647 16.2802 64.9127 16.7122 65.1287 17.2882L70.6727 33.2362L76.4327 17.3602C76.6487 16.7842 76.9847 16.3402 77.4407 16.0282C77.9207 15.7162 78.4247 15.5602 78.9527 15.5602C79.5047 15.5602 80.0087 15.7162 80.4647 16.0282C80.9207 16.3402 81.2567 16.7962 81.4727 17.3962L86.9807 33.5242L92.7047 17.2882ZM105.17 41.3723C104.378 41.3723 103.718 41.1562 103.19 40.7242C102.686 40.2922 102.434 39.6562 102.434 38.8162V25.6762C102.434 24.8362 102.698 24.2002 103.226 23.7682C103.754 23.3362 104.402 23.1202 105.17 23.1202C105.938 23.1202 106.574 23.3362 107.078 23.7682C107.606 24.2002 107.87 24.8362 107.87 25.6762V38.8162C107.87 39.6562 107.606 40.2922 107.078 40.7242C106.574 41.1562 105.938 41.3723 105.17 41.3723ZM105.17 20.2402C104.21 20.2402 103.454 20.0002 102.902 19.5202C102.35 19.0162 102.074 18.3442 102.074 17.5042C102.074 16.6642 102.35 16.0042 102.902 15.5242C103.454 15.0442 104.21 14.8042 105.17 14.8042C106.106 14.8042 106.85 15.0562 107.402 15.5602C107.978 16.0402 108.266 16.6882 108.266 17.5042C108.266 18.3442 107.99 19.0162 107.438 19.5202C106.886 20.0002 106.13 20.2402 105.17 20.2402ZM123.119 23.0482C125.231 23.0482 126.803 23.6722 127.835 24.9202C128.867 26.1442 129.383 28.0042 129.383 30.5002V38.8162C129.383 39.6082 129.131 40.2322 128.627 40.6882C128.147 41.1442 127.487 41.3723 126.647 41.3723C125.807 41.3723 125.147 41.1442 124.667 40.6882C124.187 40.2322 123.947 39.6082 123.947 38.8162V30.7522C123.947 29.5522 123.719 28.6762 123.263 28.1242C122.831 27.5722 122.147 27.2962 121.211 27.2962C120.083 27.2962 119.171 27.6562 118.475 28.3762C117.803 29.0962 117.467 30.0562 117.467 31.2562V38.8162C117.467 39.6082 117.227 40.2322 116.747 40.6882C116.267 41.1442 115.607 41.3723 114.767 41.3723C113.927 41.3723 113.255 41.1442 112.751 40.6882C112.271 40.2322 112.031 39.6082 112.031 38.8162V25.6042C112.031 24.8602 112.283 24.2602 112.787 23.8042C113.315 23.3482 113.987 23.1202 114.803 23.1202C115.547 23.1202 116.147 23.3482 116.603 23.8042C117.083 24.2362 117.323 24.8002 117.323 25.4962V26.0002C117.947 25.0402 118.751 24.3082 119.735 23.8042C120.743 23.3002 121.871 23.0482 123.119 23.0482ZM147.625 35.9002C148.105 35.9002 148.489 36.0922 148.777 36.4762C149.089 36.8602 149.245 37.3522 149.245 37.9522C149.245 38.3602 149.125 38.7442 148.885 39.1042C148.645 39.4402 148.309 39.7282 147.877 39.9683C147.061 40.4002 146.113 40.7602 145.033 41.0482C143.953 41.3123 142.957 41.4443 142.045 41.4443C140.125 41.4443 138.445 41.0722 137.005 40.3282C135.589 39.5842 134.497 38.5282 133.729 37.1602C132.961 35.7682 132.577 34.1362 132.577 32.2642C132.577 30.4642 132.949 28.8682 133.693 27.4762C134.437 26.0842 135.469 25.0042 136.789 24.2362C138.109 23.4442 139.609 23.0482 141.289 23.0482C142.897 23.0482 144.301 23.4082 145.501 24.1282C146.725 24.8242 147.673 25.8322 148.345 27.1522C149.017 28.4482 149.353 29.9722 149.353 31.7242C149.353 32.2522 149.221 32.6602 148.957 32.9482C148.717 33.2122 148.369 33.3442 147.913 33.3442H137.833C138.001 34.7602 138.433 35.7922 139.129 36.4402C139.825 37.0642 140.821 37.3762 142.117 37.3762C142.813 37.3762 143.437 37.2922 143.989 37.1242C144.541 36.9562 145.153 36.7282 145.825 36.4402C146.161 36.2962 146.485 36.1762 146.797 36.0802C147.109 35.9602 147.385 35.9002 147.625 35.9002ZM141.433 26.7922C140.401 26.7922 139.573 27.1282 138.949 27.8002C138.325 28.4482 137.953 29.3962 137.833 30.6442H144.781C144.709 29.3722 144.385 28.4122 143.809 27.7642C143.257 27.1162 142.465 26.7922 141.433 26.7922Z" fill="#B0B0B0"/>
<path d="M174.633 37.7002C175.137 38.1802 175.389 38.7082 175.389 39.2842C175.389 39.8602 175.161 40.3642 174.705 40.7962C174.249 41.2283 173.721 41.4443 173.121 41.4443C172.521 41.4443 171.993 41.2283 171.537 40.7962L168.729 38.2042C167.577 39.2362 166.305 40.0402 164.913 40.6162C163.521 41.1683 162.093 41.4443 160.629 41.4443C158.901 41.4443 157.353 41.1442 155.985 40.5442C154.617 39.9442 153.549 39.1162 152.781 38.0602C152.037 36.9802 151.665 35.7442 151.665 34.3522C151.665 32.8162 152.073 31.4722 152.889 30.3202C153.705 29.1442 154.989 28.0642 156.741 27.0802C155.877 26.1682 155.241 25.2802 154.833 24.4162C154.425 23.5522 154.221 22.6642 154.221 21.7522C154.221 20.5282 154.533 19.4482 155.157 18.5122C155.781 17.5522 156.645 16.8202 157.749 16.3162C158.877 15.7882 160.161 15.5242 161.601 15.5242C163.641 15.5242 165.261 16.0522 166.461 17.1082C167.661 18.1402 168.261 19.5322 168.261 21.2842C168.261 22.5802 167.901 23.7442 167.181 24.7762C166.461 25.8082 165.345 26.7682 163.833 27.6562L168.225 31.7602C168.873 30.4162 169.281 28.9642 169.449 27.4042C169.521 26.7082 169.773 26.1802 170.205 25.8202C170.661 25.4362 171.177 25.2442 171.753 25.2442C172.401 25.2442 172.941 25.4602 173.373 25.8922C173.805 26.3242 173.973 26.9122 173.877 27.6562C173.637 30.2242 172.845 32.6122 171.501 34.8202L174.633 37.7002ZM161.673 19.1242C160.905 19.1242 160.281 19.3642 159.801 19.8442C159.321 20.3002 159.081 20.9242 159.081 21.7162C159.081 22.2202 159.213 22.7122 159.477 23.1922C159.765 23.6722 160.257 24.2602 160.953 24.9562C162.033 24.3802 162.801 23.8162 163.257 23.2642C163.713 22.7122 163.941 22.1122 163.941 21.4642C163.941 20.7682 163.725 20.2042 163.293 19.7722C162.885 19.3402 162.345 19.1242 161.673 19.1242ZM160.881 37.3042C162.585 37.3042 164.181 36.6562 165.669 35.3602L159.657 29.7802C157.857 30.8842 156.957 32.2882 156.957 33.9922C156.957 35.0242 157.305 35.8402 158.001 36.4402C158.721 37.0162 159.681 37.3042 160.881 37.3042Z" fill="#3FDC26"/>
<path d="M180.587 41.1562C179.747 41.1562 179.099 40.9282 178.643 40.4722C178.187 40.0162 177.959 39.3682 177.959 38.5282V18.4042C177.959 17.5642 178.187 16.9162 178.643 16.4602C179.099 16.0042 179.747 15.7762 180.587 15.7762H187.823C190.583 15.7762 192.959 16.2802 194.951 17.2882C196.943 18.2962 198.467 19.7482 199.523 21.6442C200.579 23.5402 201.107 25.8082 201.107 28.4482C201.107 31.0882 200.579 33.3682 199.523 35.2882C198.491 37.1842 196.979 38.6362 194.987 39.6442C192.995 40.6522 190.607 41.1562 187.823 41.1562H180.587ZM187.427 36.6202C192.827 36.6202 195.527 33.8962 195.527 28.4482C195.527 23.0242 192.827 20.3122 187.427 20.3122H183.575V36.6202H187.427ZM207.72 41.3723C206.928 41.3723 206.268 41.1562 205.74 40.7242C205.236 40.2922 204.984 39.6562 204.984 38.8162V25.6762C204.984 24.8362 205.248 24.2002 205.776 23.7682C206.304 23.3362 206.952 23.1202 207.72 23.1202C208.488 23.1202 209.124 23.3362 209.628 23.7682C210.156 24.2002 210.42 24.8362 210.42 25.6762V38.8162C210.42 39.6562 210.156 40.2922 209.628 40.7242C209.124 41.1562 208.488 41.3723 207.72 41.3723ZM207.72 20.2402C206.76 20.2402 206.004 20.0002 205.452 19.5202C204.9 19.0162 204.624 18.3442 204.624 17.5042C204.624 16.6642 204.9 16.0042 205.452 15.5242C206.004 15.0442 206.76 14.8042 207.72 14.8042C208.656 14.8042 209.4 15.0562 209.952 15.5602C210.528 16.0402 210.816 16.6882 210.816 17.5042C210.816 18.3442 210.54 19.0162 209.988 19.5202C209.436 20.0002 208.68 20.2402 207.72 20.2402ZM225.67 23.0482C227.782 23.0482 229.354 23.6722 230.386 24.9202C231.418 26.1442 231.934 28.0042 231.934 30.5002V38.8162C231.934 39.6082 231.682 40.2322 231.178 40.6882C230.698 41.1442 230.038 41.3723 229.198 41.3723C228.358 41.3723 227.698 41.1442 227.218 40.6882C226.738 40.2322 226.498 39.6082 226.498 38.8162V30.7522C226.498 29.5522 226.27 28.6762 225.814 28.1242C225.382 27.5722 224.698 27.2962 223.762 27.2962C222.634 27.2962 221.722 27.6562 221.026 28.3762C220.354 29.0962 220.018 30.0562 220.018 31.2562V38.8162C220.018 39.6082 219.778 40.2322 219.298 40.6882C218.818 41.1442 218.158 41.3723 217.318 41.3723C216.478 41.3723 215.806 41.1442 215.302 40.6882C214.822 40.2322 214.582 39.6082 214.582 38.8162V25.6042C214.582 24.8602 214.834 24.2602 215.338 23.8042C215.866 23.3482 216.538 23.1202 217.354 23.1202C218.098 23.1202 218.698 23.3482 219.154 23.8042C219.634 24.2362 219.874 24.8002 219.874 25.4962V26.0002C220.498 25.0402 221.302 24.3082 222.286 23.8042C223.294 23.3002 224.422 23.0482 225.67 23.0482ZM250.176 35.9002C250.656 35.9002 251.04 36.0922 251.328 36.4762C251.64 36.8602 251.796 37.3522 251.796 37.9522C251.796 38.3602 251.676 38.7442 251.436 39.1042C251.196 39.4402 250.86 39.7282 250.428 39.9683C249.612 40.4002 248.664 40.7602 247.584 41.0482C246.504 41.3123 245.508 41.4443 244.596 41.4443C242.676 41.4443 240.996 41.0722 239.556 40.3282C238.14 39.5842 237.048 38.5282 236.28 37.1602C235.512 35.7682 235.128 34.1362 235.128 32.2642C235.128 30.4642 235.5 28.8682 236.244 27.4762C236.988 26.0842 238.02 25.0042 239.34 24.2362C240.66 23.4442 242.16 23.0482 243.84 23.0482C245.448 23.0482 246.852 23.4082 248.052 24.1282C249.276 24.8242 250.224 25.8322 250.896 27.1522C251.568 28.4482 251.904 29.9722 251.904 31.7242C251.904 32.2522 251.772 32.6602 251.508 32.9482C251.268 33.2122 250.92 33.3442 250.464 33.3442H240.384C240.552 34.7602 240.984 35.7922 241.68 36.4402C242.376 37.0642 243.372 37.3762 244.668 37.3762C245.364 37.3762 245.988 37.2922 246.54 37.1242C247.092 36.9562 247.704 36.7282 248.376 36.4402C248.712 36.2962 249.036 36.1762 249.348 36.0802C249.66 35.9602 249.936 35.9002 250.176 35.9002ZM243.984 26.7922C242.952 26.7922 242.124 27.1282 241.5 27.8002C240.876 28.4482 240.504 29.3962 240.384 30.6442H247.332C247.26 29.3722 246.936 28.4122 246.36 27.7642C245.808 27.1162 245.016 26.7922 243.984 26.7922Z" fill="#9D52E8"/>
<rect x="3.45416" width="51.8124" height="51.5625" rx="19" fill="black"/>
<ellipse cx="38.8702" cy="21.3212" rx="8.19816" ry="8.15862" fill="#9D52E8"/>
<ellipse cx="20.1784" cy="21.3212" rx="8.19816" ry="8.15862" fill="#9D52E8"/>
<ellipse cx="38.8702" cy="38.8351" rx="8.19816" ry="8.15862" fill="#9D52E8"/>
<ellipse cx="20.1784" cy="38.8351" rx="8.19816" ry="8.15862" fill="#9D52E8"/>
<rect width="5.15692" height="11.4874" rx="2.57846" transform="matrix(0.695937 0.718103 -0.721457 0.692459 34.0606 4.56885)" fill="#3FDC26"/>
</svg>
